<?xml version="1.0" encoding="utf-8" ?><svg xmlns="http://www.w3.org/2000/svg" xmlns:xlink="http://www.w3.org/1999/xlink" width="896" height="1152" viewBox="0 0 896 1152"><path fill="white" d="M0 0L896 0L896 1152L0 1152L0 0Z"/><path fill="#111827" d="M509.287 599.819C511.164 599.507 514.794 599.389 516.782 599.42C556.584 600.044 585.134 636.061 591.345 672.344C595.841 698.789 589.709 725.938 574.283 747.883C561.345 765.958 545.196 777.017 523.136 780.613C478.115 786.088 444.024 742.594 438.899 701.495C435.823 675.907 443.086 650.149 459.076 629.939C471.955 613.414 488.233 602.421 509.287 599.819Z"/><path fill="white" d="M514.163 602.097C523.216 601.046 536.161 606.143 543.439 611.351C562.14 624.799 572.137 647.737 575.917 669.802C582.873 710.396 565.488 771.144 518.618 778.529C506.594 778.783 494.112 774.99 485.027 766.982C445.971 732.558 444.49 662.462 476.549 622.937C486.793 610.308 498.207 603.614 514.163 602.097Z"/><path fill="#111827" d="M614.434 598.521C623.945 598.582 633.455 598.59 642.966 598.545C651.27 598.506 660.342 597.952 668.537 599.567C692.117 604.212 704.316 628.739 699.176 651.212C695.948 665.323 688.968 672.518 677.083 679.941C685.259 680.051 691.837 681.204 699.363 684.608C711.426 690.059 720.809 700.107 725.422 712.515C730.396 726.085 729.718 741.084 723.539 754.149C709.092 782.765 681.616 780.719 654.635 780.742L614.442 780.749L614.434 598.521Z"/><path fill="white" d="M629.79 683.142L659.673 683.004C666.766 682.954 675.993 682.352 682.753 683.79C688.389 684.947 693.643 687.509 698.025 691.239C707.844 699.707 712.248 713.869 713.026 726.405C714.024 742.501 711.117 754.348 700.6 766.525C684.534 782.369 650.59 777.86 628.773 777.816L628.775 713.124C628.775 703.964 628.684 693.908 628.79 684.696C628.803 683.605 629.023 683.712 629.79 683.142Z"/><path fill="white" d="M628.41 601.38C639.228 601.308 663.264 598.85 671.308 605.725C688.366 620.302 688.676 653.678 675.461 670.975C665.315 680.801 661.01 680.182 647.185 680.112L628.658 680.044C628.853 653.823 628.771 627.6 628.41 601.38Z"/><path fill="#070F7B" d="M487.714 247.107C525.883 250.613 553.894 266.779 578.831 295.675C618.096 341.176 633.351 414.255 582.433 457.885C566.978 471.129 532.528 481.451 532.445 449.87C526.715 459.068 519.9 467.327 508.813 469.464C488.541 473.372 474.894 463.376 470.723 443.985C467.161 426.741 470.556 408.787 480.168 394.034C487.185 383.453 497.166 375.627 509.766 373.21C527.439 369.821 535.411 375.534 545.237 389.043C546.597 383.324 547.873 377.905 549.532 372.264C557.658 370.105 566.005 369.465 574.426 367.243C569.252 395.145 560.728 423.09 556.471 451.213C556.158 453.281 556.244 456.611 557.497 458.338C558.193 459.316 559.257 459.968 560.445 460.141C565.021 460.837 571.853 458.011 575.38 454.94C587.27 444.589 591.991 427.605 593.635 412.715C598.518 368.5 578.238 334.308 551.316 300.965C538.183 284.699 505.532 253.031 484.356 249.039C485.977 248.597 486.404 248.12 487.714 247.107Z"/><path fill="white" d="M520.494 377.456C531.183 377.382 536.392 387.118 537.634 396.432C540.116 415.038 534.958 455.997 512.171 459.403C480.112 457.015 497.442 384.887 520.494 377.456Z"/><path fill="#111827" d="M303.755 598.516C317.075 598.617 330.395 598.645 343.716 598.6C352.646 598.606 364.318 598.229 372.876 599.911C378.769 601.081 384.402 603.301 389.509 606.465C400.969 613.625 409.061 625.099 411.959 638.298C418.943 669.441 400.165 693.441 369.989 699.869C375.108 710.877 382.621 724.025 388.446 735.101C396.281 750 404.132 766.296 412.328 780.802L397.112 780.805C394.637 776.486 391.786 770.402 389.49 765.844C377.962 744.218 366.934 722.125 355.596 700.341L318.093 700.348C318.535 725.957 317.793 754.538 317.75 780.483L303.795 780.594L303.755 598.516Z"/><path fill="white" d="M318.721 601.581C331.275 601.45 358.168 599.802 368.77 602.767C403.408 612.452 405.269 661.962 384.967 685.584C375.192 695.12 367.086 697.156 353.527 697.291C341.627 697.409 329.703 697.377 317.798 697.365C317.814 671.14 317.62 630.072 317.968 602.441C318.219 602.154 318.47 601.868 318.721 601.581Z"/><path fill="#111827" d="M231.921 528.963C314.761 515.233 337.403 404.793 365.915 340.776C389.074 288.779 426.181 245.028 487.714 247.107C486.404 248.12 485.977 248.597 484.356 249.039C460.611 252.576 441.574 270.698 428.004 289.437C372.996 365.403 367.163 477.406 270.961 519.627C254.073 527.038 248.197 526.208 232.546 530.29L231.921 528.963Z"/><path fill="#0A1452" d="M433.363 472.009C425.399 458.976 422.551 440.754 424.251 425.814C430.688 369.258 490.17 323.696 546.305 344.028C555.012 347.182 561.706 352.372 567.439 359.526L565.648 360.708C528.074 332.472 481.135 345.362 458.587 384.919C444.577 409.496 442.909 430.675 453.659 456.743C461.816 471.014 468.847 478.795 482.18 488.41C541.801 531.404 622.503 511.513 689.095 497.525L689.694 498.367C646.114 509.81 567.792 531.272 523.2 528.177C509.501 527.233 496.071 523.914 483.509 518.367C464.929 510.305 440.781 490.798 433.363 472.009Z"/><path fill="#070F7B" d="M433.363 472.009C425.399 458.976 422.551 440.754 424.251 425.814C430.688 369.258 490.17 323.696 546.305 344.028C555.012 347.182 561.706 352.372 567.439 359.526L565.648 360.708C528.074 332.472 481.135 345.362 458.587 384.919C444.577 409.496 442.909 430.675 453.659 456.743C444.545 449.935 443.974 411.196 449.794 400.219C453.557 393.122 456.384 388.633 455.736 380.721C455.61 379.175 451.571 377.51 450.311 376.876C444.06 384.876 440.644 387.34 438.889 397.402C438.528 399.474 427.443 408.687 428.031 413.765C427.007 425.134 426.265 438.962 426.062 450.336C425.974 455.232 432.671 466.143 433.363 472.009Z"/><path fill="#111827" d="M226.149 596.423C226.546 596.541 228.069 597.054 228.186 597.412C238.307 628.508 247.432 659.921 257.417 691.057C266.991 720.912 275.854 751.107 286.077 780.741L272.795 780.64L255.112 725.298L226.25 725.248C213.122 725.152 199.993 725.181 186.866 725.335C182.785 736.617 172.542 774.225 166.596 781.214L165.435 780.664L166.405 781.398L165.438 780.534C165.885 776.997 171.233 762.173 172.615 758.039L189.996 705.874L213.57 633.792C215.703 627.115 223.839 600.555 226.149 596.423Z"/><path fill="white" d="M221.36 621.981C223.89 625.056 250.447 711.583 253.819 721.664L221.67 721.757L188.378 721.752C191.686 709.906 196.915 695.48 200.854 683.544C207.543 663.278 214.122 641.982 221.36 621.981Z"/><path fill="#111827" d="M268.756 825.26C273.675 823.618 278.997 826.258 280.667 831.168C282.336 836.079 279.726 841.416 274.826 843.113C269.886 844.824 264.497 842.189 262.814 837.239C261.131 832.289 263.796 826.915 268.756 825.26Z"/><path fill="white" d="M270.779 828.87C273.758 828.42 276.543 830.457 277.017 833.433C277.49 836.409 275.474 839.21 272.502 839.706C269.497 840.207 266.66 838.165 266.181 835.156C265.703 832.148 267.767 829.325 270.779 828.87Z"/><path fill="#111827" d="M323.919 825.124C324.62 825.148 327.415 825.13 327.648 825.332C329.075 826.572 331.641 835.413 332.379 837.38C333.618 833.997 334.783 830.588 335.875 827.155C337.529 822.064 341.832 826.475 341.892 830.035C341.894 830.14 344.018 836.478 344.247 837.247C344.724 835.724 347.714 825.781 348.04 825.627C353.474 823.059 350.821 828.95 350.419 830.373C349.439 834.074 348.14 839.184 346.676 842.766C346.463 843.288 342.487 843.106 342.358 842.862C340.591 839.534 339.615 835.025 338.488 831.332C336.913 835.058 336.015 838.94 334.324 842.54C333.874 843.225 329.755 842.925 329.63 842.546C327.882 837.222 325.443 830.472 323.919 825.124Z"/><path fill="#111827" d="M379.294 825.318C386.175 825.252 396.024 823.763 394.294 833.93C393.974 835.808 391.748 837.09 391.632 837.809C391.358 839.494 396.231 841.933 393.321 843.633L392.615 844.081L392.016 843.777C388.182 841.875 389.284 838.487 385 838.532C382.186 838.562 384.437 842.518 383.277 842.968C382.023 843.454 378.72 843.57 379.241 841.238C379.344 835.74 379.208 830.625 379.294 825.318Z"/><path fill="white" d="M383.598 828.606C388.89 828.849 391.682 828.539 389.867 834.753C382.543 835.834 383.445 835.607 383.598 828.606Z"/><path fill="#111827" d="M576.89 825.379C580.694 825.256 585.111 824.846 588.076 827.353C591.383 830.899 590.43 834.149 587.35 837.204C585.264 839.273 595.632 843.219 585.97 843.345C585.096 842.024 582.212 836.078 579.758 838.644C578.373 840.091 580.729 843.729 577.086 843.217C576.663 843.158 575.717 843.385 575.316 842.837C574.9 842.123 574.766 838.901 574.971 838.17C575.741 835.425 573.404 826.442 576.221 825.596L576.89 825.379Z"/><path fill="white" d="M579.212 829.067C584.42 829.151 586.438 828.72 585.175 834.416C578.25 835.845 579.097 835.701 579.212 829.067Z"/><path fill="#111827" d="M608.684 825.086C615.095 825.696 616.492 830.316 620.505 835.539C620.49 832.476 620.206 829.055 620.606 826.078C620.764 824.909 624.101 825.283 624.139 825.544C624.893 830.724 624.62 838.384 624.553 843.683C620.542 842.949 621.336 843.675 618.649 840.176C616.828 837.805 614.828 835.227 612.964 832.877C612.892 835.415 613.199 840.555 612.461 842.977C612.335 843.392 609 843.371 608.956 842.936C608.383 837.314 608.585 830.852 608.684 825.086Z"/><path fill="#111827" d="M522.468 835.657C522.457 833.11 522.051 827.945 522.863 825.515C523.07 824.895 526.14 825.071 526.197 825.599C526.806 831.3 526.536 837.67 526.592 843.521C522.08 843.064 523.493 843.5 520.217 839.568C518.566 837.585 516.628 835.31 514.91 833.367C514.844 836.351 515.03 839.727 514.608 842.598C514.461 843.602 511.115 843.363 511.068 842.962C510.445 837.572 510.593 830.619 510.779 825.119C511 825.144 513.046 825.335 512.993 825.315C515.477 826.255 520.771 833.636 522.468 835.657Z"/><path fill="#111827" d="M452.459 824.792C457.319 825.692 460.706 831.625 464.023 835.609C464.037 832.761 463.642 828.203 464.4 825.543C464.577 824.922 467.915 825.119 467.968 825.534C468.637 830.839 468.278 837.565 468.287 843.021C467.317 843.06 466.346 843.098 465.376 843.137C462.344 840.671 459.043 836.096 456.202 832.994C456.198 835.555 456.513 840.173 455.863 842.626C455.769 842.978 452.579 842.935 452.552 842.561C452.141 836.966 452.077 830.448 452.459 824.792Z"/><path fill="#111827" d="M361.553 825.316C362.039 825.326 365.673 825.249 365.884 825.551C367.698 828.247 368.717 830.786 370.091 833.906C370.593 835.044 373.779 841.608 373.588 842.804C373.507 843.313 370.249 843.449 369.69 843.015C368.302 841.939 369.193 840.299 367.233 839.318C360.529 839.318 361.304 837.938 358.325 842.991C358.096 843.379 354.506 843.191 354.666 842.647C356.366 836.843 359.578 831.126 361.553 825.316Z"/><path fill="white" d="M364.028 829.579C365.143 831.492 366.934 834.298 365.863 836.32C360.271 835.362 361.937 835.494 364.028 829.579Z"/><path fill="#111827" d="M481.317 825.304C482.748 825.202 495.141 824.776 490.223 829.969C489.438 830.798 487.335 829.001 485.954 828.754C477.798 827.294 475.944 839.143 484.245 839.54C488.351 839.728 487.662 837.651 487.797 834.094C492.146 834.452 492.011 833.279 491.554 840.642C491.448 842.354 484.426 843.922 482.035 843.166C472.327 840.098 471.614 829.608 481.317 825.304Z"/><path fill="#111827" d="M401.335 825.294C403.814 825.214 415.256 823.86 414.596 827.147C413.755 831.331 403.839 825.064 405.49 831.669C405.966 833.571 411.471 831.722 412.927 832.789C413.909 833.587 413.29 835.809 411.728 835.8L405.397 835.776C405.795 843.501 407.761 838.263 413.972 839.99C415.051 840.291 415.307 843.37 412.877 843.339L401.244 843.264C401.119 838.289 400.928 830.179 401.335 825.294Z"/><path fill="#111827" d="M554.566 825.362L564.707 825.443C568.697 825.453 568.465 828.719 565.574 828.855C563.437 828.955 557.465 827.184 558.686 831.503C559.217 833.378 564.488 831.799 566.003 832.726C566.294 832.903 566.495 833.198 566.552 833.535C567.183 837.037 561.225 835.775 558.761 835.776C558.355 844.023 564.538 837.678 566.965 839.907C572.343 844.848 556.32 843.238 554.51 843.235C554.52 837.489 554.352 831.024 554.566 825.362Z"/><path fill="#111827" d="M534.493 825.464C536.208 825.428 546.918 825.221 547.17 825.781C550.041 832.16 536.197 824.718 538.99 831.951C539.706 833.807 545.251 830.805 546.516 833.828C546.177 837.056 541.495 835.382 538.225 836.306C538.825 838.701 538.365 839.788 540.791 839.855C542.131 839.893 546.573 839.478 547.597 840.062C548.876 840.793 548.052 843.774 546.145 843.25C542.361 843.104 538.21 843.213 534.453 843.198C534.389 837.833 534.243 830.774 534.493 825.464Z"/><path fill="#111827" d="M432.106 825.266C433.043 825.256 444.063 825.125 444.216 825.38C448.571 832.662 433.13 824.574 436.817 832.307C437.378 833.483 443.421 830.887 444.171 833.99C443.228 836.639 439.068 835.135 435.8 836.2C435.943 836.759 436.497 839.374 436.687 839.484C437.963 840.225 442.679 839.512 444.335 839.909C445.193 840.115 445.347 840.578 445.606 840.961C445.989 841.528 445.109 842.9 445.041 842.919C443.003 843.494 433.97 843.251 432.074 843.259C432.065 837.302 432.03 831.21 432.106 825.266Z"/><path fill="#111827" d="M638.426 825.33C640.646 825.291 650.837 825.586 646.8 829.858C645.142 831.613 637.663 825.122 635.465 832.767C634.046 837.7 639.076 841.718 643.321 839.06C644.334 838.426 644.073 834.914 644.121 833.843C644.8 833.952 647.319 834.043 647.51 834.733C649.954 843.549 642.755 844.625 636.1 842.351C634.481 841.798 632.031 839.309 631.631 837.563C630.146 831.079 632.042 827.19 638.426 825.33Z"/><path fill="#111827" d="M246.886 825.267C248.18 825.139 258.09 823.816 255.118 828.776C254.056 829.885 250.445 827.65 249.164 828.498C244.22 831.77 253.883 832.93 254.801 833.683C260.444 838.308 256.042 842.332 250.204 843.572C249.29 843.462 239.642 842.831 243.732 839.299C245.197 838.306 250.106 840.758 251.407 839.868C257.057 836.002 244.88 835.932 243.522 832.787C241.721 828.615 243.995 827.226 246.886 825.267Z"/><path fill="#111827" d="M287.631 825.264C290.63 825.243 301.347 823.638 301.159 827.792C299.076 830.719 291.686 825.667 291.808 831.087C291.907 835.451 295.972 832.522 300.418 834.181C300.175 834.603 299.943 835.031 299.721 835.465C298.248 838.337 295.846 836.456 293.262 836.888C289.369 837.539 295.276 845.065 288.018 842.852C287.286 842.629 287.73 835.867 287.597 834.734C287.545 832.16 287.571 828.039 287.631 825.264Z"/><path fill="#111827" d="M304.81 825.37C308.136 825.253 321.186 823.752 320.151 827.459C319.484 829.848 315.522 827.854 314.985 828.902C314.129 830.576 314.564 836.157 314.566 838.083C314.596 840.504 315.637 843.01 312.109 842.938C308.433 842.863 311.889 830.705 310.213 828.958C308.729 827.412 304.71 831.169 304.81 825.37Z"/><path fill="#111827" d="M499.033 825.116C499.471 825.146 502.898 825.15 502.975 825.675C503.759 831.009 503.364 837.851 503.386 843.364C502.676 843.309 499.153 843.366 499.108 842.577C498.811 837.427 498.752 830.152 499.033 825.116Z"/><path fill="#111827" d="M596.763 825.577C597.717 825.629 599.587 825.407 600.389 825.958C601.177 826.5 600.738 841.251 600.757 843.275C600.16 843.242 597.122 843.287 597.065 842.821C596.489 838.093 596.749 830.126 596.763 825.577Z"/><path fill="#A4A4A5" d="M232.546 530.29C228.307 531.112 192.783 534.135 191.791 531.975L191.848 531.889C192.553 531.652 204.065 531.473 205.656 531.54C214.901 531.931 222.977 529.895 231.921 528.963L232.546 530.29Z"/><path fill="#A4A4A5" d="M689.095 497.525C690.176 496.984 702.515 493.935 703.267 494.175C702.814 494.995 691.351 498.002 689.694 498.367L689.095 497.525Z"/><path fill="#1E3A8A" d="M567.439 359.526C569.459 362.412 569.943 363.537 571.58 366.613C569.633 364.614 567.656 362.645 565.648 360.708L567.439 359.526Z"/></svg>