<?xml version="1.0" encoding="utf-8"?>
<svg xmlns="http://www.w3.org/2000/svg" viewBox="153.45 95.4 588.2 588.2">
<path fill="#070F7B" d="M487.714 247.107C525.883 250.613 553.894 266.779 578.831 295.675C618.096 341.176 633.351 414.255 582.433 457.885C566.978 471.129 532.528 481.451 532.445 449.87C526.715 459.068 519.9 467.327 508.813 469.464C488.541 473.372 474.894 463.376 470.723 443.985C467.161 426.741 470.556 408.787 480.168 394.034C487.185 383.453 497.166 375.627 509.766 373.21C527.439 369.821 535.411 375.534 545.237 389.043C546.597 383.324 547.873 377.905 549.532 372.264C557.658 370.105 566.005 369.465 574.426 367.243C569.252 395.145 560.728 423.09 556.471 451.213C556.158 453.281 556.244 456.611 557.497 458.338C558.193 459.316 559.257 459.968 560.445 460.141C565.021 460.837 571.853 458.011 575.38 454.94C587.27 444.589 591.991 427.605 593.635 412.715C598.518 368.5 578.238 334.308 551.316 300.965C538.183 284.699 505.532 253.031 484.356 249.039C485.977 248.597 486.404 248.12 487.714 247.107Z"/>
<path fill="white" d="M520.494 377.456C531.183 377.382 536.392 387.118 537.634 396.432C540.116 415.038 534.958 455.997 512.171 459.403C480.112 457.015 497.442 384.887 520.494 377.456Z"/>
<path fill="#111827" d="M231.921 528.963C314.761 515.233 337.403 404.793 365.915 340.776C389.074 288.779 426.181 245.028 487.714 247.107C486.404 248.12 485.977 248.597 484.356 249.039C460.611 252.576 441.574 270.698 428.004 289.437C372.996 365.403 367.163 477.406 270.961 519.627C254.073 527.038 248.197 526.208 232.546 530.29L231.921 528.963Z"/>
<path fill="#0A1452" d="M433.363 472.009C425.399 458.976 422.551 440.754 424.251 425.814C430.688 369.258 490.17 323.696 546.305 344.028C555.012 347.182 561.706 352.372 567.439 359.526L565.648 360.708C528.074 332.472 481.135 345.362 458.587 384.919C444.577 409.496 442.909 430.675 453.659 456.743C461.816 471.014 468.847 478.795 482.18 488.41C541.801 531.404 622.503 511.513 689.095 497.525L689.694 498.367C646.114 509.81 567.792 531.272 523.2 528.177C509.501 527.233 496.071 523.914 483.509 518.367C464.929 510.305 440.781 490.798 433.363 472.009Z"/>
<path fill="#070F7B" d="M433.363 472.009C425.399 458.976 422.551 440.754 424.251 425.814C430.688 369.258 490.17 323.696 546.305 344.028C555.012 347.182 561.706 352.372 567.439 359.526L565.648 360.708C528.074 332.472 481.135 345.362 458.587 384.919C444.577 409.496 442.909 430.675 453.659 456.743C444.545 449.935 443.974 411.196 449.794 400.219C453.557 393.122 456.384 388.633 455.736 380.721C455.61 379.175 451.571 377.51 450.311 376.876C444.06 384.876 440.644 387.34 438.889 397.402C438.528 399.474 427.443 408.687 428.031 413.765C427.007 425.134 426.265 438.962 426.062 450.336C425.974 455.232 432.671 466.143 433.363 472.009Z"/>
<path fill="#A4A4A5" d="M232.546 530.29C228.307 531.112 192.783 534.135 191.791 531.975L191.848 531.889C192.553 531.652 204.065 531.473 205.656 531.54C214.901 531.931 222.977 529.895 231.921 528.963L232.546 530.29Z"/>
<path fill="#A4A4A5" d="M689.095 497.525C690.176 496.984 702.515 493.935 703.267 494.175C702.814 494.995 691.351 498.002 689.694 498.367L689.095 497.525Z"/>
<path fill="#1E3A8A" d="M567.439 359.526C569.459 362.412 569.943 363.537 571.58 366.613C569.633 364.614 567.656 362.645 565.648 360.708L567.439 359.526Z"/>
</svg>